<svg width="32" height="32" viewBox="0 0 32 32" xmlns="http://www.w3.org/2000/svg">
    <g fill="#B0C63A" fill-rule="evenodd">
        <circle opacity=".2" cx="16" cy="16" r="16"/>
        <path fill-opacity=".6" d="M7.149 16.617h10.837V5.179H7.149z"/>
        <path d="M26.27 25.015H5.73a.396.396 0 0 1-.396-.398v-7.823c0-.22.177-.397.396-.397H9.16c.219 0 .396.177.396.397v4.776h5.125c.219 0 .395.178.395.398 0 .22-.176.398-.395.398h-5.52a.396.396 0 0 1-.396-.398v-4.776H6.124v7.028h19.752v-7.028h-2.642v4.776c0 .22-.177.398-.395.398h-6.622a.396.396 0 0 1-.395-.398v-6.36a.396.396 0 1 1 .79 0v5.962h5.831v-4.776c0-.22.177-.397.396-.397h3.432c.22 0 .396.177.396.397v7.823a.398.398 0 0 1-.397.398"/>
        <path d="M24.41 26.512a.396.396 0 0 1-.395-.397v-.985H7.982v.857a.396.396 0 1 1-.79 0v-1.255c0-.22.177-.397.395-.397H24.41c.219 0 .395.177.395.397v1.383a.397.397 0 0 1-.395.397M21.527 20.525H9.269a.396.396 0 0 1-.395-.398v-5.63c0-.22.177-.397.395-.397h13.459c.219 0 .395.178.395.398v1.129a.396.396 0 1 1-.79 0v-.732H9.664v4.835h11.863c.218 0 .395.177.395.397 0 .22-.177.398-.395.398"/>
    </g>
</svg>
